<svg width="152" height="27" viewBox="0 0 152 27" fill="none" xmlns="http://www.w3.org/2000/svg">
<rect width="152" height="26.1505" fill="#D0021B" fill-opacity="0.01"/>
<path fill-rule="evenodd" clip-rule="evenodd" d="M8.91331 19.4094C8.91331 19.4094 10.3172 19.4242 11.4712 18.8171C11.7612 18.6581 12.0364 18.4851 12.281 18.2798C12.9117 17.7487 13.3608 17.1284 13.6648 16.357L10.9365 13.6288L10.9269 13.9215C10.8806 14.5531 10.7802 14.9925 10.65 15.3201C10.408 15.7988 9.7074 16.5789 7.70251 16.5789L7.69901 16.5842H4.19154C3.44288 16.5842 2.83398 15.9753 2.83398 15.2257V10.9818C2.83398 10.2323 3.44288 9.62339 4.19154 9.62339H8.92816V4.88678C8.92816 4.13811 9.53705 3.52835 10.2866 3.52835H14.5305C15.28 3.52835 15.8889 4.13811 15.8889 4.88678V5.16284H18.7141V4.88678C18.7141 2.57963 16.8377 0.704025 14.5305 0.704025H10.2866C7.98031 0.704025 6.10296 2.57963 6.10296 4.88678V6.7982H4.19154C1.88526 6.7982 0.00878906 8.67467 0.00878906 10.9818V15.2257C0.00878906 17.5329 1.88526 19.4094 4.19154 19.4094H8.91331Z" fill="#33BE8C"/>
<path fill-rule="evenodd" clip-rule="evenodd" d="M16.9625 6.79739C16.0619 6.79739 15.3018 6.90834 14.7323 7.03152C14.561 7.06908 14.4204 7.10577 14.2911 7.14072C13.9189 7.25516 13.5922 7.4124 13.3511 7.54781C13.3232 7.56266 13.2935 7.58101 13.2646 7.5976C13.1677 7.65875 13.0742 7.72165 12.9807 7.7863C12.8881 7.85444 12.8069 7.91646 12.7501 7.96189C12.1028 8.53235 11.6546 9.21025 11.3672 10.0638L14.1723 12.8697L14.1906 12.2853C14.216 11.9394 14.257 11.6519 14.3086 11.4065L14.4291 10.9697C14.4981 10.7722 14.5759 10.6132 14.6589 10.4831C14.7148 10.3983 14.7751 10.3136 14.8493 10.2341C14.9629 10.1127 15.0668 10.0332 15.1795 9.95892C15.211 9.93621 15.2459 9.91524 15.2791 9.89428C15.5613 9.73441 15.916 9.62521 16.379 9.62521C16.4262 9.62521 16.4602 9.62259 16.5039 9.62259H20.6255C21.3742 9.62259 21.9831 10.2315 21.9831 10.981V15.2249C21.9831 15.9745 21.3742 16.5834 20.6255 16.5834H15.888V21.3209C15.888 22.0686 15.2791 22.6784 14.5296 22.6784H10.2857C9.53614 22.6784 8.92725 22.0686 8.92725 21.3209V21.1619H6.10205V21.3209C6.10205 23.6271 7.9794 25.5027 10.2857 25.5027H14.5296C16.8367 25.5027 18.7132 23.6271 18.7132 21.3209V19.4086H20.6255C22.9318 19.4086 24.8083 17.5321 24.8083 15.2249V10.981C24.8083 8.67387 22.9318 6.79739 20.6255 6.79739H16.9625Z" fill="#398DE3"/>
<path fill-rule="evenodd" clip-rule="evenodd" d="M151.822 4.50511H151.361L150.864 5.85725C150.74 6.21014 150.64 6.5176 150.565 6.79886H150.557C150.481 6.50887 150.391 6.2014 150.276 5.85725L149.799 4.50511H149.338L149.143 7.30024H149.486L149.561 6.10183C149.587 5.67906 149.607 5.21437 149.616 4.86673H149.623C149.703 5.19778 149.811 5.55416 149.943 5.95334L150.399 7.28364H150.673L151.167 5.928C151.308 5.5428 151.419 5.18904 151.518 4.86673H151.527C151.527 5.21088 151.552 5.68343 151.574 6.07388L151.639 7.30024H151.996L151.822 4.50511Z" fill="#4D586B"/>
<path fill-rule="evenodd" clip-rule="evenodd" d="M146.845 4.81345H147.696V7.30024H148.06V4.81345H148.916V4.50511H146.845V4.81345Z" fill="#4D586B"/>
<path fill-rule="evenodd" clip-rule="evenodd" d="M36.8759 11.942C33.3982 11.3916 32.3997 10.9426 32.3997 9.66978C32.3997 8.293 34.0866 7.19053 36.4287 7.19053C38.5969 7.19053 40.2838 8.15498 40.697 10.048H43.6576C43.2794 6.57116 40.5249 4.50511 36.4287 4.50511C31.6763 4.50511 29.4731 7.22547 29.4731 9.77199C29.4731 13.1126 32.0904 14.1452 36.3929 14.7646C40.7311 15.3499 41.2133 16.2794 41.2133 17.519C41.2133 19.0688 39.5264 20.4106 36.772 20.4106C34.2255 20.4106 32.1935 19.1378 31.8144 17.0717H28.8538C29.336 20.8247 32.4678 23.131 36.772 23.131C41.0063 23.131 44.0368 20.8928 44.0368 17.3469C44.0368 13.3196 40.8001 12.5622 36.8759 11.942Z" fill="#4D586B"/>
<path fill-rule="evenodd" clip-rule="evenodd" d="M53.504 4.50512C48.4782 4.50512 44.5881 8.70622 44.5881 13.87C44.5881 18.9648 48.4782 23.0969 53.504 23.0969C58.5656 23.0969 62.4216 18.9648 62.4216 13.87C62.4216 8.70622 58.5656 4.50512 53.504 4.50512ZM53.5036 20.4102C50.2337 20.4102 47.5483 17.4846 47.5483 13.8696C47.5483 10.1866 50.2337 7.19017 53.5036 7.19017C56.8101 7.19017 59.4955 10.1866 59.4955 13.8696C59.4955 17.4846 56.8101 20.4102 53.5036 20.4102Z" fill="#4D586B"/>
<path fill-rule="evenodd" clip-rule="evenodd" d="M79.6724 18.2764L75.8845 4.95326H72.854L69.0679 18.2764L65.2809 4.95326H62.2163L67.5181 22.6837H70.5477L74.3365 9.11942L78.1227 22.6837H81.1872L86.4882 4.95326H83.4236L79.6724 18.2764Z" fill="#4D586B"/>
<path fill-rule="evenodd" clip-rule="evenodd" d="M88.4067 4.95326H91.3324V22.6837H88.4067V4.95326Z" fill="#4D586B"/>
<path fill-rule="evenodd" clip-rule="evenodd" d="M137.927 4.50512C132.9 4.50512 129.01 8.70622 129.01 13.87C129.01 18.9648 132.9 23.0969 137.927 23.0969C142.989 23.0969 146.845 18.9648 146.845 13.87C146.845 8.70622 142.989 4.50512 137.927 4.50512ZM137.927 20.4102C134.657 20.4102 131.972 17.4846 131.972 13.8696C131.972 10.1866 134.657 7.19017 137.927 7.19017C141.232 7.19017 143.917 10.1866 143.917 13.8696C143.917 17.4846 141.232 20.4102 137.927 20.4102Z" fill="#4D586B"/>
<path fill-rule="evenodd" clip-rule="evenodd" d="M119.157 15.6251H124.855C124.133 18.5175 121.722 20.4455 119.14 20.4455C116.695 20.4455 114.113 18.6547 113.355 15.6251C113.015 14.6082 113.183 13.0104 113.183 13.0104C113.563 9.32559 116.386 7.15646 119.312 7.15646C121.826 7.15646 123.616 8.36202 124.58 10.4272H127.678C126.439 6.64017 123.41 4.50511 119.312 4.50511C114.216 4.50511 110.224 8.56819 110.224 13.7669C110.224 18.8967 114.216 23.096 119.14 23.096C123.72 23.096 128.125 19.309 128.091 13.0104H119.157V15.6251Z" fill="#4D586B"/>
<path fill-rule="evenodd" clip-rule="evenodd" d="M105.738 18.4249L96.7834 4.95328H93.8586V22.6837H96.7834V9.56934L105.738 22.6662H108.662V4.93581H105.738V18.4249Z" fill="#4D586B"/>
</svg>
