<svg width="79" height="79" viewBox="0 0 79 79" fill="none" xmlns="http://www.w3.org/2000/svg">
<path fill-rule="evenodd" clip-rule="evenodd" d="M28.2621 59.369C28.2621 59.369 32.7178 59.4161 36.3806 57.4891C37.3011 56.9845 38.1745 56.4355 38.9508 55.7839C40.9527 54.0981 42.3779 52.1295 43.3428 49.6812L34.6837 41.022L34.6532 41.9509C34.5062 43.9556 34.1873 45.3502 33.7742 46.39C33.0062 47.9094 30.7825 50.3854 24.4191 50.3854L24.408 50.4021H13.2757C10.8995 50.4021 8.9669 48.4695 8.9669 46.0905V32.6208C8.9669 30.2418 10.8995 28.3092 13.2757 28.3092H28.3092V13.2757C28.3092 10.8995 30.2418 8.96413 32.6208 8.96413H46.0905C48.4695 8.96413 50.4021 10.8995 50.4021 13.2757V14.1518H59.369V13.2757C59.369 5.95298 53.4132 0 46.0905 0H32.6208C25.3009 0 19.3423 5.95298 19.3423 13.2757V19.3423H13.2757C5.95575 19.3423 0 25.2981 0 32.6208V46.0905C0 53.4132 5.95575 59.369 13.2757 59.369H28.2621Z" fill="white"/>
<path fill-rule="evenodd" clip-rule="evenodd" d="M53.8112 19.3424C50.9526 19.3424 48.5403 19.6945 46.7325 20.0855C46.1891 20.2047 45.7427 20.3212 45.3323 20.4321C44.1512 20.7953 43.1142 21.2944 42.3489 21.7242C42.2602 21.7713 42.1659 21.8295 42.0744 21.8822C41.7666 22.0763 41.47 22.2759 41.1733 22.4811C40.8794 22.6974 40.6215 22.8942 40.4413 23.0384C38.3867 24.849 36.9643 27.0006 36.0521 29.7095L44.9552 38.6154L45.0135 36.7605C45.0939 35.6625 45.2242 34.7503 45.3878 33.9712L45.7704 32.5848C45.9894 31.9582 46.2362 31.4535 46.4996 31.0404C46.6771 30.7715 46.8684 30.5025 47.1041 30.2502C47.4645 29.8648 47.7945 29.6125 48.1522 29.3768C48.252 29.3047 48.3629 29.2382 48.4682 29.1716C49.3638 28.6642 50.4895 28.3176 51.9591 28.3176C52.1088 28.3176 52.2169 28.3093 52.3556 28.3093H65.4371C67.8133 28.3093 69.7459 30.2419 69.7459 32.6209V46.0906C69.7459 48.4696 67.8133 50.4022 65.4371 50.4022H50.4008V65.4385C50.4008 67.8119 48.4682 69.7473 46.0893 69.7473H32.6195C30.2405 69.7473 28.308 67.8119 28.308 65.4385V64.9339H19.3411V65.4385C19.3411 72.7584 25.2996 78.7114 32.6195 78.7114H46.0893C53.412 78.7114 59.3677 72.7584 59.3677 65.4385V59.3691H65.4371C72.7571 59.3691 78.7128 53.4133 78.7128 46.0906V32.6209C78.7128 25.2982 72.7571 19.3424 65.4371 19.3424H53.8112Z" fill="white"/>
</svg>
